<svg id="Layer_1" data-name="Layer 1" xmlns="http://www.w3.org/2000/svg" viewBox="0 0 496.16 496.15"><defs><style>.cls-1{fill:#a51510a9;}.cls-2{fill:#5b4f3f;}.cls-3{fill:#d8d8d8;}.cls-4{fill:#c6c6c6;}.cls-5{fill:#306a87;}.cls-6{fill:#b7b7b7;}.cls-7{fill:#c1c1c1;}.cls-8{fill:#b2b1b1;}</style></defs><title>hairdresser</title><path class="cls-1" d="M248.08,0C111.07,0,0,111.06,0,248.08S111.07,496.15,248.08,496.15,496.16,385.08,496.16,248.08,385.09,0,248.08,0Z"/><path class="cls-2" d="M409.68,333.1l-44.39,42.66-3.4-3.4L404.54,328l-4.81-4.81-44.39,42.66-3.4-3.4L394.61,318l-5-5-44.39,42.66-3.4-3.4,42.66-44.39-4.81-4.81-44.39,42.66-3.4-3.4,42.65-44.39-5-5-44.39,42.66-3.4-3.4,42.66-44.39L359.54,283l-44.39,42.66-3.4-3.4,42.66-44.39-5-5L305,315.47l-3.4-3.4,42.66-44.39-4.81-4.81-44.39,42.66-3.4-3.4,42.66-44.39-5-5L284.9,295.37l-3.4-3.4,42.65-44.39-4.81-4.81L275,285.43l-3.4-3.4,42.66-44.39-5-5L264.8,275.28l-3.4-3.4,42.66-44.39-4.81-4.81-44.39,42.66-3.4-3.4,42.66-44.39-5-5-44.39,42.66-3.4-3.4L284,207.39l-4.81-4.81-44.39,42.66-3.4-3.4L274,197.45l-5-5-44.39,42.66-3.4-3.4,42.66-44.39-4.81-4.81-44.39,42.66-3.4-3.4,42.66-44.39-5-5L204.51,215l-3.4-3.4,42.65-44.39L239,162.39,194.57,205l-3.4-3.4,42.66-44.39-5-5-44.39,42.66-3.4-3.4,42.66-44.39-4.81-4.81-44.39,42.66-3.4-3.4,42.66-44.39-5-5-44.39,42.66-3.4-3.4L203.58,127l-4.81-4.81-44.39,42.66-3.4-3.4,42.66-44.39-5-5-44.39,42.66-3.4-3.4,42.66-44.39-4.81-4.81-44.39,42.66-3.4-3.4L173.54,97l-5-5L124.12,134.6l-3.4-3.4,42.66-44.39-5.17-5.17-69.6,69.59a22,22,0,0,0,0,31.12L313.8,407.54a22,22,0,0,0,31.12,0l69.6-69.59Z"/><path class="cls-3" d="M408.42,161,236.74,256.86l19.69,24.27s122.94-86.33,139.95-98S408.42,161,408.42,161Z"/><path class="cls-4" d="M408.91,162.7c-.2-1.1-170.56,96.14-170.56,96.14l18.09,22.29s122.94-86.33,139.95-98C409.27,174.34,409.54,166.15,408.91,162.7Z"/><path class="cls-5" d="M236.74,256.86s-18.2,8.65-32.82,15.52c-11.31,5.31-33.72,10.45-41.18,9s-14.38-9-17.71-12.2a42.78,42.78,0,0,0-4.37-5.11c-17.14-17.14-45.46-16.6-63.26,1.19s-18.33,46.12-1.19,63.26,45.46,16.6,63.26-1.19c0,0,27.75-23,38.79-30.44s23.5-3.36,29.84,0a31,31,0,0,0,28,.6c7.16-3.58,20.29-16.31,20.29-16.31ZM127.53,315.34c-11,11-28.38,11.28-38.93.73s-10.22-28,.73-38.93,28.38-11.28,38.93-.73S138.49,304.39,127.53,315.34Z"/><path class="cls-4" d="M321.85,108.63c-11.63,17-98,139.95-98,139.95l24.27,19.69L344,96.59S333.49,91.62,321.85,108.63Z"/><path class="cls-6" d="M342.21,96.08c-3.51-.6-11.62-.21-20.35,12.55-11.63,17-98,139.95-98,139.95l21.73,17.63S343.38,96.28,342.21,96.08Z"/><path class="cls-5" d="M241,364.35a42.51,42.51,0,0,0-5.11-4.37c-3.23-3.34-10.7-10.26-12.2-17.71s3.64-29.87,9-41.18c6.86-14.62,15.52-32.82,15.52-32.82l-24.27-19.69s-12.73,13.13-16.31,20.29a31,31,0,0,0,.6,28c3.36,6.34,7.46,18.8,0,29.84s-30.44,38.79-30.44,38.79c-17.8,17.8-18.33,46.12-1.19,63.26s45.46,16.6,63.26-1.19S258.13,381.49,241,364.35Zm-13.13,51.32c-11,11-28.38,11.28-38.93.73s-10.22-28,.73-38.93,28.38-11.28,38.93-.73S238.81,404.72,227.86,415.67Z"/><circle class="cls-7" cx="231.74" cy="274.53" r="8.3"/><path class="cls-8" d="M223.44,274.53a8.29,8.29,0,0,0,8.29,8.3V266.24A8.29,8.29,0,0,0,223.44,274.53Z"/></svg>